<?xml version="1.0" encoding="utf-8"?>
<!-- Generator: Adobe Illustrator 19.2.1, SVG Export Plug-In . SVG Version: 6.00 Build 0)  -->
<svg version="1.1" xmlns="http://www.w3.org/2000/svg" xmlns:xlink="http://www.w3.org/1999/xlink" x="0px" y="0px"
	 viewBox="0 0 1280 720" style="enable-background:new 0 0 1280 720;" xml:space="preserve">
<style type="text/css">
	.st0{fill:url(#SVGID_1_);}
	.st1{fill:url(#SVGID_2_);}
	.st2{fill:url(#SVGID_3_);}
	.st3{fill:url(#SVGID_4_);}
	.st4{fill:url(#SVGID_5_);}
	.st5{fill:url(#SVGID_6_);}
	.st6{fill:url(#SVGID_7_);}
	.st7{fill:url(#SVGID_8_);}
	.st8{fill:url(#SVGID_9_);}
	.st9{fill:#31193E;}
	.st10{fill:#4C245D;}
	.st11{fill:#7A3568;}
	.st12{fill:url(#SVGID_10_);}
</style>
<g id="Layer_2">
	<linearGradient id="SVGID_1_" gradientUnits="userSpaceOnUse" x1="640" y1="-2.873367e-008" x2="640" y2="720">
		<stop  offset="0" style="stop-color:#40276A"/>
		<stop  offset="0.119" style="stop-color:#452B6E"/>
		<stop  offset="0.3122" style="stop-color:#553879"/>
		<stop  offset="0.5555" style="stop-color:#725590"/>
		<stop  offset="0.8367" style="stop-color:#9D85B6"/>
		<stop  offset="1" style="stop-color:#BAA8D2"/>
	</linearGradient>
	<rect class="st0" width="1280" height="720"/>
</g>
<g id="Layer_9">
	
		<linearGradient id="SVGID_2_" gradientUnits="userSpaceOnUse" x1="1231.5887" y1="160.0666" x2="1231.5887" y2="80" gradientTransform="matrix(-1 0 0 1 2362.3926 0)">
		<stop  offset="0" style="stop-color:#846AAC"/>
		<stop  offset="0.9592" style="stop-color:#523779"/>
	</linearGradient>
	<path class="st1" d="M1280,128.3l-69.3,23.1c-47.9,16-100.5,9.6-143.3-17.3L981.6,80h66.4h232V128.3z"/>
	<linearGradient id="SVGID_3_" gradientUnits="userSpaceOnUse" x1="1032.1768" y1="176" x2="1032.1768" y2="47.8078">
		<stop  offset="0" style="stop-color:#846AAC"/>
		<stop  offset="0.9592" style="stop-color:#523779"/>
	</linearGradient>
	<path class="st2" d="M793.3,125.2l110.9,37c76.8,25.6,160.9,15.4,229.4-27.7l137.5-86.6h-106.4H793.3V125.2z"/>
	<linearGradient id="SVGID_4_" gradientUnits="userSpaceOnUse" x1="736.4185" y1="151.0697" x2="736.4185" y2="47.8078">
		<stop  offset="0" style="stop-color:#846AAC"/>
		<stop  offset="0.9592" style="stop-color:#523779"/>
	</linearGradient>
	<path class="st3" d="M544,110.1l89.3,29.8c61.8,20.6,129.6,12.4,184.8-22.3l110.8-69.8h-85.7H544V110.1z"/>
	<linearGradient id="SVGID_5_" gradientUnits="userSpaceOnUse" x1="378.5195" y1="176" x2="378.5195" y2="76.6031">
		<stop  offset="0" style="stop-color:#846AAC"/>
		<stop  offset="0.9592" style="stop-color:#523779"/>
	</linearGradient>
	<path class="st4" d="M193.3,136.6l86,28.7c59.5,19.8,124.8,12,177.9-21.5l106.6-67.2h-82.5h-288V136.6z"/>
	<linearGradient id="SVGID_6_" gradientUnits="userSpaceOnUse" x1="149.1963" y1="160" x2="149.1963" y2="79.9334">
		<stop  offset="0" style="stop-color:#846AAC"/>
		<stop  offset="0.9592" style="stop-color:#523779"/>
	</linearGradient>
	<path class="st5" d="M0,128.3l69.3,23.1c47.9,16,100.5,9.6,143.3-17.3l85.9-54.1H232H0V128.3z"/>
	<linearGradient id="SVGID_7_" gradientUnits="userSpaceOnUse" x1="626.613" y1="164.5448" x2="626.613" y2="-1.376520e-008">
		<stop  offset="0" style="stop-color:#846AAC"/>
		<stop  offset="0.9592" style="stop-color:#523779"/>
	</linearGradient>
	<path class="st6" d="M320,99.3l142.3,47.4c98.5,32.8,206.6,19.8,294.4-35.6L933.2,0L796.7,0L320,0V99.3z"/>
	<linearGradient id="SVGID_8_" gradientUnits="userSpaceOnUse" x1="246.9842" y1="132.5448" x2="246.9842" y2="-1.108947e-008">
		<stop  offset="0" style="stop-color:#846AAC"/>
		<stop  offset="0.9592" style="stop-color:#523779"/>
	</linearGradient>
	<path class="st7" d="M0,80l114.6,38.2C194,144.7,281,134.2,351.8,89.6L494,0L384,0L0,0V80z"/>
	
		<linearGradient id="SVGID_9_" gradientUnits="userSpaceOnUse" x1="713.0158" y1="132.5448" x2="713.0158" y2="3.710265e-007" gradientTransform="matrix(-1 0 0 1 1746.0316 0)">
		<stop  offset="0" style="stop-color:#846AAC"/>
		<stop  offset="0.9592" style="stop-color:#523779"/>
	</linearGradient>
	<path class="st8" d="M1280,80l-114.6,38.2C1086,144.7,999,134.2,928.2,89.6L786,0l110,0l384,0V80z"/>
</g>
<g id="Layer_6">
	<path class="st9" d="M536.6,445.6c9,0,15,0,15,0l22.5-18c10.5-1.5,12-7.5,18,0s6,0,7.5,13.5c1.7,15-9.7,17,3.2,22.6
		c4.2,1.8,7.8,4.8,10.2,8.7c4.7,7.8-4.5-1.4,4.6,7.7c9,9,4.5,6,13.5,9.7c9,3.8,4.8-5.7,21.9-8.5s20.1-8.7,41.1-2.7
		c21,6,19.5,27,30,11.2s10.5-18.7,15-27.7c4.5-9,7.5-22.5,12-22.5s6-12,12-12s19.5,3,28.5-9c9-12,4.5-30,9-39
		c4.5-9,7.5-19.6,7.5-19.6s0,1.4,10.5,0c10.5-1.4,15,18.1,16.5,27.1c1.5,9-6,24,0,28.5c6,4.5,16.3,4.4,16.3,4.4s8.2-1.4,18.2,13.6
		s3,79.5,22.5,22.5c19.5-57,16.5-58,21-62c4.5-4,0-4,10.5-8.5c10.5-4.5,18-16.5,25.5-19.5s10.6-10.1,10.6-10.1s8.9-24.4,22.4-18.4
		s19.3,27.1,19.3,27.1s-5.8,2.9,6.2,19.4s10.5,19.5,16.5,22.5c6,3-1.8,3.8,3.3,11.4c5.1,7.6,8.7-0.9,16.2,9.6s12,6,12,22.5
		c0,16.5,16.5,27,16.5,27s13.5,3,18-7.5c4.5-10.5,15-34.5,15-34.5s7.5-4.5,15-7.5s21,0,21,0s7.5,0,13.5-7.5c6-7.5-0.9-12.8,5.1-22.8
		c6-10,8.4-26.7,8.4-26.7s28.4,21.4,27.2,23.5c-1.2,2.1,8.8,9.5,10.3,14c1.5,4.5,1.5-2.5,13.5-14s13.5-29.7,25.5-34.1
		s13.5-20.9,19.5-22.4c6-1.5,15.9,30.7,15.9,30.7v272.2L0,627.1L0,368l32-32h16l65.6,70.6l55.5-12h34.5l12-22.5h25.5l7.5-12.1
		l6-22.4l12-13.5c0,0,9-12,13.5-13.5c4.5-1.5,13.5-10.5,13.5-10.5v-7.5h16.5l12,7.5c0,0,0,22.5,0,27c0,4.5-10.5,4.5,0,10.5
		s10.5,16.5,10.5,18.7s9,11.2,13.5,11.2c4.5,0,6,0,15,6c9,6,9,6,16.5,12c7.5,6,9,9,9,15c0,6,4.5,9,9,12c4.5,3,2.9-2.6,4.4,3.4
		s7.7-2.7,10.6,11.6c2.9,14.3-3.2,1.6,2.9,14.3c6.1,12.7,18.5,13,18.5,13s1.1,1.2,11.6-6.3c10.5-7.5,15-13.5,19.5-15
		c4.5-1.5,9-21,9-21s13.5-10.5,22.5-1.5s12,4.5,15,16.5"/>
</g>
<g id="Layer_4">
	<path class="st10" d="M0,416l55.1-24.4h33c0,0,22.5,10.5,25.5,15c3,4.5,16.5,10.5,16.5,10.5s24-4.5,31.5,0c7.5,4.5,30,21,30,21
		h28.5c0,0,18-9,24,0s12-1.5,19.5,10.5c7.5,12,31.5,19.5,36,18c4.5-1.5,27,0.4,33,0.2c6-0.2,4.5-7.7,18,7.3s16.5,19.5,22.5,19.5
		s10.5-6,19.5,0s21,1.5,25.5,0c4.5-1.5,19.5-10.5,19.5-10.5s7.5-16.5,25.5,7.5c18,24,31.5,28.5,42,28.5s27-7.5,42-7.5s28.5,0,33,0
		s12,1.5,12,1.5s4.5,10.5,9,6c4.5-4.5,10.5-5.3,24,1.1c13.5,6.4,22.5,9.4,22.5,9.4s9-1.5,19.5,0c10.5,1.5,22.5,3,30,0
		s27,1.5,34.5-10.5c7.5-12,1.5-10.4,15-14.2s18-2.2,33,0c15,2.2,43.5-14.3,49.5-17.3s18-4.5,25.5-3c7.5,1.5,36-12,43.5-13.5
		c7.5-1.5,36-34.5,54-36c18-1.5,46.5,4.6,52.5,10.6c6,5.9,25.5,28.4,25.5,28.4s51-19.5,55.5-21c4.5-1.5,27-3,36,1.5c9,4.5,33,9,33,9
		l30-17.9c0,0,4.5,7.6,16.5,0c12-7.6,78.9-29.7,78.9-29.7v224.6H11.6L0,612.4L0,416z"/>
</g>
<g id="Layer_3">
	<path class="st11" d="M0,448l44.6-20.4l25.5,19.5l39,7.5c0,0,46.5,6,51,7.5c4.5,1.5,31.5,25.5,31.5,25.5l19.5,17.3h57
		c0,0,43.5-6.7,54,0c10.5,6.7,39,18.7,39,18.7s9-3,13.5,0c4.5,3,34.5,4.5,39,0c4.5-4.5,40.5,9,48,9s34.5-4.5,42,0
		c7.5,4.5,18,3,40.5,0c22.5-3,49.5-1.5,67.5,9c18,10.5,31.5,9,40.5,9s19.5,4.6,31.5,0.1s12,4.1,31.5,2c19.5-2.1,27-15.6,43.5-18.6
		c16.5-3,34.5-10.5,52.5-9c18,1.5,27,13.5,52.5,6s36-22.4,43.5-26.2s12,0.8,31.5,0s21-11.2,42,0s36,17.2,51,11.2
		c15-6,16.5-36.6,48-25.8s43.5,21.3,67.5,7.8s30-24,54-30s16.5-13.5,40.5-18c24-4.5,38.4-2.1,38.4-2.1v215.1L0,651.1V448z"/>
</g>
<g id="Layer_1">
	<linearGradient id="SVGID_10_" gradientUnits="userSpaceOnUse" x1="640" y1="528" x2="640" y2="720">
		<stop  offset="0" style="stop-color:#28183D"/>
		<stop  offset="0.7398" style="stop-color:#28183D"/>
		<stop  offset="0.9592" style="stop-color:#28193D"/>
	</linearGradient>
	<path class="st12" d="M1280,528v192H0V528l46.9,4.9l63,9.9l17.3-13l50.6,19.1l43.2,18.5h30.9c0,0,6.2,2.5,11.1,0
		c4.9-2.5,30.9,17.3,30.9,17.3l13.6,4.9l38.3-9.9c0,0,6.2-2.5,11.1-2.5c4.9,0,35.8,14.8,42,19.8s13.6,14.8,18.5,14.8
		s28.4-1.2,35.8,0c7.4,1.2,27.2-1.2,37,0c9.9,1.2,39.5,8.6,44.4,8.6s11.1-7.4,14.8-9.9c3.7-2.5,16-4.9,24.7-2.5
		c8.6,2.5,25.9,7.4,35.8,12.4c9.9,4.9,18.3,1.2,30.2,0c11.8-1.2,9.4-7.4,22.9-7.4s30.9,3.7,39.5,3.7c8.7,0,17.3-6.2,27.2-7.4
		c9.9-1.2,17.3-9.9,37-3.7c19.8,6.2,33.3,8.6,49.4,8.6c16,0,21-7.4,40.8-11.1c19.8-3.7,51.8-33.3,60.5-33.3c8.6,0,1.2-9.9,17.3-9.9
		c16.1,0,18.5-19.8,39.5,1.2s34.6,28.4,49.4,33.3c14.8,4.9,45.7,6.2,60.5,6.2c14.8,0,28.4,8.6,39.5,0c11.1-8.6,4.9-11.1,24.7-24.7
		c19.8-13.6,21-23.5,45.7-34.6l28.3-6l25.5-7.5L1280,528z"/>
</g>
</svg>
